<svg id="Outline" xmlns="http://www.w3.org/2000/svg" width="40" height="40" viewBox="0 0 40 40">
  <defs>
    <style>
      .cls-1 {
        fill: none;
      }
    </style>
  </defs>
  <g>
    <g>
      <path d="M35.4707,12.11768l-15-8a.99839.99839,0,0,0-.9414,0l-15,8A.99946.99946,0,0,0,4,13V35a1,1,0,0,0,2,0V13.6001L20,6.1333l14,7.4668V35a1,1,0,0,0,2,0V13A.99946.99946,0,0,0,35.4707,12.11768Z"/>
      <path d="M25,14H15a.99974.99974,0,0,0-1,1v8H10a.99974.99974,0,0,0-1,1v9a.99974.99974,0,0,0,1,1H30a.99974.99974,0,0,0,1-1V24a.99974.99974,0,0,0-1-1H26V15A.99974.99974,0,0,0,25,14Zm-9,2h8v7H16Zm-5,9h8v7H11Zm18,7H21V25h8Z"/>
    </g>
    <rect class="cls-1" width="40" height="40"/>
  </g>
</svg>
